#define 1_width 110
#define 1_height 64
static unsigned char 1_bits[] = {
   0x00, 0x00, 0x00, 0x00, 0x00, 0x00, 0x00, 0x00, 0x80, 0x1f, 0x00, 0x00,
   0x00, 0x00, 0x00, 0x00, 0x00, 0x00, 0x00, 0x00, 0x00, 0x00, 0xf0, 0x03,
   0x00, 0x00, 0x00, 0x00, 0x00, 0x00, 0x00, 0x00, 0x00, 0x00, 0x00, 0x00,
   0xf8, 0xff, 0x03, 0x00, 0x00, 0x00, 0x00, 0x00, 0x00, 0x00, 0x00, 0x00,
   0x00, 0x00, 0xff, 0xff, 0x0f, 0x00, 0x00, 0x00, 0x00, 0x00, 0x00, 0x00,
   0x00, 0x00, 0x00, 0xc0, 0xff, 0xeb, 0x1f, 0x00, 0x00, 0x00, 0x00, 0x00,
   0x00, 0x00, 0x00, 0x00, 0x00, 0xe0, 0xdf, 0x03, 0x3e, 0x00, 0x00, 0x00,
   0x00, 0x00, 0x00, 0x00, 0x00, 0x00, 0x00, 0xf8, 0xdf, 0x07, 0x78, 0x00,
   0x00, 0x00, 0x00, 0x00, 0x00, 0x00, 0x00, 0x00, 0x00, 0xfc, 0xff, 0x03,
   0xf0, 0x00, 0x00, 0x00, 0x00, 0x00, 0x00, 0x00, 0x00, 0x00, 0x00, 0xfe,
   0xfc, 0x01, 0xe0, 0x00, 0x00, 0x00, 0x00, 0x00, 0x00, 0x00, 0x00, 0x00,
   0x00, 0xfe, 0xff, 0xc1, 0xc0, 0x01, 0x00, 0x00, 0x00, 0x00, 0x00, 0x00,
   0x00, 0x00, 0x00, 0xff, 0xff, 0xe1, 0xc3, 0x01, 0x00, 0x00, 0x00, 0x00,
   0x00, 0x00, 0x00, 0x00, 0x00, 0xf3, 0xff, 0xe1, 0x87, 0x05, 0x00, 0x00,
   0x00, 0x00, 0x00, 0x00, 0x00, 0x00, 0x00, 0xff, 0xff, 0xe1, 0x8f, 0x0d,
   0x00, 0x00, 0x00, 0x00, 0x00, 0x00, 0x00, 0x00, 0x00, 0x7f, 0xef, 0xe1,
   0xbf, 0x0d, 0x00, 0x00, 0x00, 0x00, 0x00, 0x00, 0x00, 0x00, 0x00, 0xef,
   0xc7, 0xc1, 0x3f, 0x1d, 0x00, 0x00, 0x00, 0x00, 0x00, 0x00, 0x00, 0x00,
   0x00, 0xef, 0xcf, 0x83, 0xdf, 0x7f, 0x00, 0x00, 0x00, 0x00, 0x00, 0x00,
   0x00, 0x00, 0x00, 0xcf, 0xff, 0x07, 0xc6, 0xff, 0x00, 0x00, 0x00, 0x00,
   0x00, 0x00, 0x00, 0x00, 0x00, 0xff, 0xff, 0x0e, 0xf0, 0xff, 0x01, 0x00,
   0x00, 0x00, 0x00, 0x00, 0x00, 0x00, 0x00, 0xff, 0xff, 0x39, 0xfe, 0xff,
   0x07, 0x00, 0x00, 0x00, 0x00, 0x00, 0x00, 0x00, 0x00, 0xff, 0xff, 0xf3,
   0xdf, 0xff, 0x07, 0x00, 0x00, 0x00, 0x00, 0x00, 0x00, 0x00, 0x00, 0xff,
   0xff, 0xe7, 0x9f, 0xff, 0x0f, 0x00, 0x00, 0x00, 0x00, 0x00, 0x00, 0x00,
   0x00, 0xff, 0xff, 0xcf, 0xff, 0xff, 0x1b, 0x00, 0x00, 0x00, 0x00, 0x00,
   0x00, 0x00, 0x00, 0xff, 0xff, 0x3f, 0xff, 0xff, 0x1f, 0x00, 0x00, 0x00,
   0x00, 0x00, 0x00, 0x00, 0x00, 0xff, 0xff, 0x7f, 0xf8, 0xe7, 0x1f, 0x00,
   0x00, 0x00, 0x00, 0x00, 0x00, 0x00, 0x80, 0xfb, 0xff, 0xff, 0x44, 0xfe,
   0x03, 0x00, 0x00, 0x00, 0x00, 0x00, 0x00, 0x00, 0x80, 0xfb, 0xff, 0xff,
   0x05, 0xfe, 0x03, 0x00, 0x00, 0xe0, 0x7f, 0x00, 0x80, 0x3f, 0xc0, 0xf7,
   0xff, 0xff, 0x03, 0xf8, 0x07, 0x00, 0x00, 0xfc, 0xff, 0xff, 0xff, 0xdf,
   0xef, 0xf5, 0xff, 0xff, 0x4f, 0xe2, 0x1f, 0x00, 0x00, 0xe0, 0xff, 0xff,
   0xff, 0xff, 0xf7, 0xef, 0xff, 0xff, 0x1f, 0xc3, 0x1d, 0x00, 0x00, 0x80,
   0xff, 0x7f, 0xff, 0xff, 0xf7, 0x1f, 0xfe, 0xff, 0x7f, 0x0f, 0x0f, 0x00,
   0x00, 0x00, 0xfc, 0xfd, 0xff, 0xe7, 0xf7, 0xff, 0x80, 0xff, 0xff, 0x08,
   0x0e, 0x00, 0x00, 0x00, 0xf0, 0xff, 0xff, 0xff, 0xf7, 0xff, 0x00, 0xfc,
   0xff, 0x63, 0x00, 0x00, 0x00, 0x00, 0xe0, 0xff, 0xff, 0xff, 0xff, 0x7f,
   0x00, 0xe0, 0xff, 0x1f, 0x00, 0x00, 0x00, 0x00, 0x80, 0xff, 0xff, 0x9f,
   0xfb, 0x3f, 0x00, 0x80, 0xff, 0x7f, 0x00, 0x00, 0x00, 0x00, 0x00, 0xff,
   0xfc, 0xc7, 0xf7, 0x1f, 0x00, 0x00, 0xfe, 0xff, 0x00, 0x00, 0x00, 0x00,
   0x00, 0x7c, 0xde, 0xc7, 0xf7, 0x0f, 0x00, 0x00, 0xf8, 0x7f, 0x00, 0x00,
   0x00, 0x00, 0x00, 0x38, 0xfc, 0xe5, 0xf7, 0x07, 0x00, 0x00, 0xc0, 0x3f,
   0x00, 0x00, 0x00, 0x00, 0x00, 0x20, 0xfc, 0xf3, 0xf7, 0x01, 0x00, 0x00,
   0x00, 0x00, 0x00, 0x00, 0x00, 0x00, 0x00, 0x00, 0xfe, 0x93, 0xfb, 0x00,
   0x00, 0x00, 0x00, 0x00, 0x00, 0x00, 0x00, 0x00, 0x00, 0x00, 0xfe, 0x77,
   0x7c, 0x00, 0x00, 0x00, 0x00, 0x00, 0x00, 0x00, 0x00, 0x00, 0x00, 0x00,
   0xf4, 0xd3, 0x1e, 0x00, 0x00, 0x00, 0x00, 0x00, 0x00, 0x00, 0x00, 0x00,
   0x00, 0x00, 0xfc, 0xef, 0x01, 0x00, 0x00, 0x00, 0x00, 0x00, 0x00, 0x00,
   0x00, 0x00, 0x00, 0x00, 0xfc, 0xef, 0x0c, 0x00, 0x00, 0x00, 0x00, 0x00,
   0x00, 0x00, 0x00, 0x00, 0x00, 0x00, 0x78, 0x6f, 0x0e, 0x00, 0x00, 0x00,
   0x00, 0x00, 0x00, 0x00, 0x00, 0x00, 0x00, 0x00, 0xf0, 0x0f, 0x0f, 0x00,
   0x00, 0x00, 0x00, 0x00, 0x00, 0x00, 0x00, 0x00, 0x00, 0x00, 0xf0, 0x8f,
   0x0e, 0x00, 0x00, 0x00, 0x00, 0x00, 0x00, 0x00, 0x00, 0x00, 0x00, 0x00,
   0xa0, 0x8b, 0x0f, 0x00, 0x00, 0x00, 0x00, 0x00, 0x00, 0x00, 0x00, 0x00,
   0x00, 0x00, 0x83, 0x27, 0x0f, 0x00, 0x00, 0x00, 0x00, 0x00, 0x00, 0x00,
   0x00, 0x00, 0x00, 0xc0, 0x07, 0x3b, 0xce, 0x00, 0x00, 0x00, 0x00, 0x00,
   0x00, 0x00, 0x00, 0x00, 0x00, 0xfc, 0x17, 0x00, 0x2d, 0x00, 0x00, 0x00,
   0x00, 0x00, 0x00, 0x00, 0x00, 0x00, 0x00, 0xd8, 0x3f, 0x01, 0x0c, 0x00,
   0x00, 0x00, 0x00, 0x00, 0x00, 0x00, 0x00, 0x00, 0x00, 0xf8, 0x83, 0xe3,
   0x00, 0x03, 0x00, 0x00, 0x00, 0x00, 0x00, 0x00, 0x00, 0x00, 0x00, 0xf0,
   0xef, 0x77, 0x85, 0x11, 0x00, 0x00, 0x00, 0x00, 0x00, 0x00, 0x00, 0x00,
   0x00, 0xe0, 0x07, 0xc0, 0x0e, 0x18, 0x00, 0x00, 0x00, 0x00, 0x00, 0x00,
   0x00, 0x00, 0x00, 0x80, 0x73, 0xf0, 0x1e, 0x00, 0x00, 0x00, 0x00, 0x00,
   0x00, 0x00, 0x00, 0x00, 0x00, 0x00, 0x01, 0xf7, 0x1f, 0x00, 0x00, 0x00,
   0x00, 0x00, 0x00, 0x00, 0x00, 0x00, 0x00, 0x00, 0xdc, 0x1e, 0x00, 0x00,
   0x00, 0x00, 0x00, 0x00, 0x00, 0x00, 0x00, 0x00, 0x00, 0x00, 0xdc, 0x3f,
   0x00, 0x00, 0x00, 0x00, 0x00, 0x00, 0x00, 0x00, 0x00, 0x00, 0x00, 0x00,
   0xf8, 0x7f, 0x00, 0x00, 0x00, 0x00, 0x00, 0x00, 0x00, 0x00, 0x00, 0x00,
   0x00, 0x00, 0xe0, 0x77, 0x00, 0x00, 0x00, 0x00, 0x00, 0x00, 0x00, 0x00,
   0x00, 0x00, 0x00, 0x00, 0x00, 0x00, 0x00, 0x00, 0x00, 0x00, 0x00, 0x00,
   0x00, 0x00, 0x00, 0x00, 0x00, 0x00, 0x00, 0x00, 0x00, 0x00, 0x00, 0x00,
   0x00, 0x00, 0x00, 0x00, 0x00, 0x00, 0x00, 0x00, 0x00, 0x00, 0x00, 0x00,
   0x00, 0x00, 0x00, 0x00, 0x00, 0x00, 0x00, 0x00, 0x00, 0x00, 0x00, 0x00,
   0x00, 0x00, 0x00, 0x00, 0x00, 0x00, 0x00, 0x00 };
