#define 3_width 110
#define 3_height 64
static unsigned char 3_bits[] = {
   0x00, 0x00, 0x00, 0x00, 0x00, 0x00, 0x00, 0x00, 0x00, 0x00, 0x00, 0x00,
   0x00, 0x00, 0x00, 0x00, 0x00, 0x00, 0x00, 0x00, 0x00, 0x00, 0x00, 0x60,
   0x00, 0x00, 0x00, 0x00, 0x00, 0x00, 0x00, 0x00, 0x00, 0x00, 0x00, 0x00,
   0x00, 0xfe, 0x01, 0x00, 0x00, 0x00, 0x00, 0x00, 0x00, 0x00, 0x00, 0x00,
   0x00, 0x00, 0x80, 0xff, 0x1f, 0x00, 0x00, 0x00, 0x00, 0x00, 0x00, 0x00,
   0x00, 0x00, 0x00, 0x00, 0xf0, 0xff, 0x7f, 0x00, 0x00, 0x00, 0x00, 0x00,
   0x00, 0x00, 0x00, 0x00, 0x00, 0x00, 0xfc, 0xff, 0xff, 0x01, 0x00, 0x00,
   0x00, 0x00, 0x00, 0x00, 0x00, 0x00, 0x00, 0x00, 0xfe, 0x7d, 0xf0, 0x03,
   0x00, 0x00, 0x00, 0x00, 0x00, 0x00, 0x00, 0x00, 0x00, 0x80, 0xff, 0x7d,
   0xc0, 0x07, 0x00, 0x00, 0x00, 0x00, 0x00, 0x00, 0x00, 0x00, 0x00, 0xc0,
   0xff, 0x7f, 0x00, 0x0f, 0x00, 0x00, 0x00, 0x00, 0x00, 0x00, 0x00, 0x00,
   0x00, 0xe0, 0xdf, 0x3f, 0x00, 0x0e, 0x00, 0x00, 0x00, 0x00, 0x00, 0x00,
   0x00, 0x00, 0x00, 0xe0, 0xff, 0x1f, 0x08, 0x1e, 0x00, 0x00, 0x00, 0x00,
   0x00, 0x00, 0x00, 0x00, 0x00, 0x70, 0xff, 0x1f, 0x1c, 0x1c, 0x00, 0x00,
   0x00, 0x00, 0x00, 0x00, 0x00, 0x00, 0x00, 0xf0, 0xff, 0x1f, 0x3e, 0x18,
   0x00, 0x00, 0x00, 0x00, 0x00, 0x00, 0x00, 0x00, 0x00, 0xf0, 0xff, 0x1f,
   0xfe, 0x18, 0x00, 0x00, 0x00, 0x00, 0x00, 0x00, 0x00, 0x00, 0x00, 0xf0,
   0xff, 0x1e, 0xfe, 0x58, 0x00, 0x00, 0x00, 0x00, 0x00, 0x00, 0x00, 0x00,
   0x00, 0xf0, 0x7e, 0x1c, 0xfc, 0xdb, 0x00, 0x00, 0x00, 0x00, 0x00, 0x00,
   0x00, 0x00, 0x00, 0xf0, 0xfe, 0x3c, 0xfc, 0xd3, 0x01, 0x00, 0x00, 0x00,
   0x00, 0x00, 0x00, 0x00, 0x00, 0xf0, 0xfe, 0x3f, 0xf8, 0xfd, 0x03, 0x00,
   0x00, 0x00, 0x00, 0x00, 0x00, 0x00, 0x00, 0xf0, 0xff, 0x7f, 0x00, 0xfe,
   0x07, 0x00, 0x00, 0x00, 0x00, 0x00, 0x00, 0x00, 0x00, 0xf0, 0xff, 0xdf,
   0x01, 0xff, 0x0f, 0x00, 0x00, 0x00, 0x00, 0x00, 0x00, 0x00, 0x00, 0xf0,
   0xff, 0xbf, 0xff, 0xff, 0x3f, 0x00, 0x00, 0x00, 0x00, 0x00, 0x00, 0x00,
   0x00, 0xf0, 0xff, 0x7f, 0xff, 0xfd, 0x7f, 0x00, 0x00, 0x00, 0x00, 0x00,
   0x00, 0x00, 0x00, 0xf0, 0xff, 0xff, 0xfe, 0xf9, 0x7f, 0x00, 0x00, 0x00,
   0x0f, 0x00, 0x00, 0x00, 0x00, 0xf0, 0xff, 0xff, 0xfd, 0xff, 0xff, 0x00,
   0x00, 0x80, 0xff, 0x07, 0x00, 0x00, 0x00, 0xf8, 0xff, 0xff, 0xf3, 0xff,
   0xdf, 0x00, 0x00, 0x00, 0xfe, 0x7f, 0x00, 0x00, 0x00, 0xb8, 0xff, 0xff,
   0x87, 0x3f, 0xff, 0x01, 0x00, 0x00, 0xf8, 0xff, 0x9f, 0xff, 0x07, 0xbc,
   0xff, 0xff, 0x6f, 0x74, 0x3f, 0x01, 0x00, 0x00, 0xf0, 0xff, 0xff, 0xff,
   0x7e, 0xbe, 0xff, 0xff, 0x5f, 0xf0, 0x3f, 0x01, 0x00, 0x00, 0xc0, 0xdf,
   0xfb, 0xff, 0x7f, 0x7f, 0xff, 0xff, 0x3f, 0xc0, 0x3f, 0x01, 0x00, 0x00,
   0x80, 0xff, 0xfb, 0x7f, 0xbf, 0x7f, 0xfe, 0xff, 0x7f, 0x04, 0x3f, 0x01,
   0x00, 0x00, 0x00, 0xfe, 0xc1, 0x77, 0xbf, 0xff, 0xe1, 0xff, 0xff, 0x38,
   0xee, 0x00, 0x00, 0x00, 0x00, 0x7c, 0x80, 0xff, 0xbf, 0xff, 0x07, 0xfc,
   0xff, 0x3b, 0xfc, 0x00, 0x00, 0x00, 0x00, 0x78, 0x00, 0xff, 0xef, 0xff,
   0x07, 0xf0, 0xff, 0xc7, 0x70, 0x00, 0x00, 0x00, 0x00, 0x10, 0xc0, 0xff,
   0xdc, 0xff, 0x03, 0x80, 0xff, 0x1f, 0x62, 0x00, 0x00, 0x00, 0x00, 0x00,
   0xfc, 0x3f, 0xbe, 0xff, 0x01, 0x00, 0xfe, 0x7f, 0x0e, 0x00, 0x00, 0x00,
   0x00, 0x00, 0xff, 0x3f, 0xbe, 0xff, 0x00, 0x00, 0xf8, 0xff, 0x01, 0x00,
   0x00, 0x00, 0x00, 0x80, 0x7d, 0x3f, 0xbf, 0x7f, 0x00, 0x00, 0xe0, 0xff,
   0x07, 0x00, 0x00, 0x00, 0x00, 0xc0, 0xff, 0x3f, 0xbf, 0x0f, 0x00, 0x00,
   0x80, 0xff, 0x03, 0x00, 0x00, 0x00, 0x00, 0xc0, 0xdf, 0xbf, 0xdf, 0x07,
   0x00, 0x00, 0x00, 0xfe, 0x01, 0x00, 0x00, 0x00, 0x00, 0xe0, 0xff, 0x9f,
   0xe3, 0x03, 0x00, 0x00, 0x00, 0x00, 0x00, 0x00, 0x00, 0x00, 0x00, 0xd2,
   0xff, 0xff, 0xef, 0x00, 0x00, 0x00, 0x00, 0x00, 0x00, 0x00, 0x00, 0x00,
   0xc0, 0xf1, 0x7f, 0xff, 0x7f, 0x00, 0x00, 0x00, 0x00, 0x00, 0x00, 0x00,
   0x00, 0x00, 0xc0, 0xf1, 0x2f, 0xfc, 0xef, 0x00, 0x00, 0x00, 0x00, 0x00,
   0x00, 0x00, 0x00, 0x00, 0xf2, 0xf1, 0x0f, 0x80, 0xe7, 0x00, 0x00, 0x00,
   0x00, 0x00, 0x00, 0x00, 0x00, 0x00, 0xf4, 0xb1, 0x07, 0x00, 0xf0, 0x01,
   0x00, 0x00, 0x00, 0x00, 0x00, 0x00, 0x00, 0x00, 0xf7, 0xe2, 0x01, 0x00,
   0xd0, 0x01, 0x00, 0x00, 0x00, 0x00, 0x00, 0x00, 0x00, 0x00, 0xf7, 0x07,
   0x00, 0x00, 0xf0, 0x01, 0x00, 0x00, 0x00, 0x00, 0x00, 0x00, 0x00, 0x00,
   0x0f, 0x00, 0x00, 0x00, 0xf0, 0x01, 0x00, 0x00, 0x00, 0x00, 0x00, 0x00,
   0x00, 0x00, 0x0f, 0x00, 0x00, 0x00, 0x80, 0x03, 0x00, 0x00, 0x00, 0x00,
   0x00, 0x00, 0x00, 0x80, 0x07, 0x00, 0x00, 0x00, 0x4c, 0x3b, 0x20, 0x00,
   0x00, 0x00, 0x00, 0x00, 0x00, 0x80, 0x07, 0x00, 0x00, 0x00, 0x06, 0x18,
   0x22, 0x00, 0x00, 0x00, 0x00, 0x00, 0x00, 0x80, 0xed, 0x01, 0x00, 0x00,
   0x60, 0x0e, 0x23, 0x00, 0x00, 0x00, 0x00, 0x00, 0x00, 0x00, 0xc0, 0x03,
   0x00, 0x00, 0x30, 0x0a, 0x02, 0x00, 0x00, 0x00, 0x00, 0x00, 0x00, 0x00,
   0xcc, 0x03, 0x00, 0x00, 0x30, 0x03, 0x00, 0x00, 0x00, 0x00, 0x00, 0x00,
   0x00, 0xc0, 0x63, 0x02, 0x00, 0x00, 0x00, 0x00, 0x20, 0x00, 0x00, 0x00,
   0x00, 0x00, 0x00, 0xc0, 0xfd, 0x00, 0x00, 0x00, 0x00, 0x00, 0xe4, 0x00,
   0x00, 0x00, 0x00, 0x00, 0x00, 0x80, 0xfd, 0x01, 0x00, 0x00, 0x00, 0x00,
   0xfc, 0x01, 0x00, 0x00, 0x00, 0x00, 0x00, 0x00, 0xfe, 0x03, 0x00, 0x00,
   0x00, 0x00, 0xfe, 0x03, 0x00, 0x00, 0x00, 0x00, 0x00, 0x00, 0xf8, 0x07,
   0x00, 0x00, 0x00, 0x00, 0xfe, 0x07, 0x00, 0x00, 0x00, 0x00, 0x00, 0x00,
   0x00, 0x07, 0x00, 0x00, 0x00, 0x00, 0x00, 0x00, 0x00, 0x00, 0x00, 0x00,
   0x00, 0x00, 0x00, 0x00, 0x00, 0x00, 0x00, 0x00, 0x00, 0x00, 0x00, 0x00,
   0x00, 0x00, 0x00, 0x00, 0x00, 0x00, 0x00, 0x00, 0x00, 0x00, 0x00, 0x00,
   0x00, 0x00, 0x00, 0x00, 0x00, 0x00, 0x00, 0x00, 0x00, 0x00, 0x00, 0x00,
   0x00, 0x00, 0x00, 0x00, 0x00, 0x00, 0x00, 0x00, 0x00, 0x00, 0x00, 0x00,
   0x00, 0x00, 0x00, 0x00, 0x00, 0x00, 0x00, 0x00 };
