#define 4_width 110
#define 4_height 64
static unsigned char 4_bits[] = {
   0x00, 0x00, 0x00, 0x00, 0x00, 0x00, 0x00, 0x00, 0x00, 0x00, 0x00, 0x00,
   0x00, 0x00, 0x00, 0x00, 0x00, 0x00, 0x00, 0x00, 0x00, 0x00, 0x00, 0xfe,
   0x01, 0x00, 0x00, 0x00, 0x00, 0x00, 0x00, 0x00, 0x00, 0x00, 0x00, 0x00,
   0x80, 0x3f, 0x07, 0x00, 0x00, 0x00, 0x00, 0x00, 0x00, 0x00, 0x00, 0x00,
   0x00, 0x00, 0xe0, 0xff, 0x3f, 0x00, 0x00, 0x00, 0x00, 0x00, 0x00, 0x00,
   0x00, 0x00, 0x00, 0x00, 0xf8, 0xff, 0xff, 0x00, 0x00, 0x00, 0x00, 0x00,
   0x00, 0x00, 0x00, 0x00, 0x00, 0x00, 0xfe, 0x3f, 0xf8, 0x01, 0x00, 0x00,
   0x00, 0x00, 0x00, 0x00, 0x00, 0x00, 0x00, 0x80, 0xff, 0x7c, 0xe0, 0x03,
   0x00, 0x00, 0x00, 0x00, 0x00, 0x00, 0x00, 0x00, 0x00, 0xc0, 0xff, 0x3f,
   0x80, 0x07, 0x00, 0x00, 0x00, 0x00, 0x00, 0x00, 0x00, 0x00, 0x00, 0xe0,
   0xef, 0x1f, 0x00, 0x07, 0x00, 0x00, 0x00, 0x00, 0x00, 0x00, 0x00, 0x00,
   0x00, 0xf0, 0xff, 0x1f, 0x04, 0x0e, 0x00, 0x00, 0x00, 0x00, 0x00, 0x00,
   0x00, 0x00, 0x00, 0xf0, 0xff, 0x1f, 0x0e, 0x0e, 0x00, 0x00, 0x00, 0x00,
   0x00, 0x00, 0x00, 0x00, 0x00, 0xb0, 0xff, 0x0f, 0x3e, 0x0c, 0x00, 0x00,
   0x00, 0x00, 0x00, 0x00, 0x00, 0x00, 0x00, 0xf8, 0xff, 0x0f, 0x7e, 0x1c,
   0x00, 0x00, 0x00, 0x00, 0x00, 0x00, 0x00, 0x00, 0x00, 0xf8, 0xf7, 0x0f,
   0xfe, 0x58, 0x00, 0x00, 0x00, 0x00, 0x00, 0x00, 0x00, 0x00, 0x00, 0xf8,
   0x7f, 0x1e, 0xfe, 0xd9, 0x00, 0x00, 0x00, 0x00, 0x00, 0x00, 0x00, 0x00,
   0x00, 0xf8, 0x7e, 0x1c, 0xfc, 0xe9, 0x01, 0x00, 0x00, 0x00, 0x00, 0x00,
   0x00, 0x00, 0x00, 0xf0, 0xfe, 0x3f, 0xf8, 0xfc, 0x03, 0x00, 0x00, 0x00,
   0x00, 0x00, 0x00, 0x00, 0x00, 0xf0, 0xfe, 0x3f, 0x00, 0xfe, 0x07, 0x00,
   0x00, 0x00, 0x00, 0x00, 0x00, 0x00, 0x00, 0xf0, 0xff, 0xef, 0x80, 0xff,
   0x0f, 0x00, 0x00, 0x00, 0x00, 0x00, 0x00, 0x00, 0x00, 0xf0, 0xff, 0xdf,
   0xf7, 0xff, 0x3f, 0x00, 0x00, 0x00, 0x00, 0x00, 0x00, 0x00, 0x00, 0xf0,
   0xff, 0x3f, 0xff, 0xfd, 0x7f, 0x00, 0x00, 0x00, 0x00, 0x00, 0x00, 0x00,
   0x00, 0xf0, 0xff, 0x7f, 0xfe, 0xfc, 0x7f, 0x00, 0x00, 0x00, 0x00, 0x00,
   0x00, 0x00, 0x00, 0xf0, 0xff, 0xff, 0xfc, 0xff, 0xdf, 0x00, 0x00, 0x00,
   0x00, 0x00, 0x00, 0x00, 0x00, 0xf8, 0xff, 0xff, 0xf9, 0xff, 0xff, 0x00,
   0x00, 0x00, 0x00, 0x00, 0x00, 0x00, 0x00, 0xd8, 0xff, 0xff, 0x83, 0x3f,
   0xff, 0x01, 0x00, 0xe0, 0xff, 0x03, 0x00, 0x00, 0x00, 0xdc, 0xff, 0xff,
   0x27, 0x74, 0x3f, 0x01, 0x00, 0x80, 0xff, 0xff, 0x01, 0xff, 0x03, 0xbe,
   0xff, 0xff, 0x4f, 0xf0, 0x3f, 0x01, 0x00, 0x00, 0xfe, 0xff, 0xff, 0xff,
   0x7e, 0xbf, 0xff, 0xff, 0x3f, 0xc0, 0x3f, 0x01, 0x00, 0x00, 0xf8, 0xff,
   0xff, 0xff, 0x3f, 0x7f, 0xff, 0xff, 0x7f, 0x14, 0xff, 0x00, 0x00, 0x00,
   0xe0, 0xcf, 0xfb, 0xff, 0xbf, 0xff, 0xfc, 0xff, 0xff, 0x38, 0xee, 0x00,
   0x00, 0x00, 0x80, 0xff, 0xff, 0x3f, 0xbf, 0xff, 0x03, 0xff, 0xff, 0x7b,
   0x78, 0x00, 0x00, 0x00, 0x00, 0xff, 0xff, 0xff, 0xbf, 0xff, 0x07, 0xf8,
   0xff, 0xc7, 0x70, 0x00, 0x00, 0x00, 0x00, 0xfc, 0xf3, 0xff, 0xff, 0xff,
   0x03, 0xc0, 0xff, 0x1f, 0x23, 0x00, 0x00, 0x00, 0x00, 0xf8, 0xc1, 0xff,
   0xdc, 0xff, 0x03, 0x00, 0xff, 0x7f, 0x02, 0x00, 0x00, 0x00, 0x00, 0xe0,
   0xe0, 0x3f, 0xbe, 0xff, 0x01, 0x00, 0xfc, 0xff, 0x03, 0x00, 0x00, 0x00,
   0x00, 0x40, 0xe0, 0x3f, 0xbe, 0xff, 0x00, 0x00, 0xf0, 0xff, 0x07, 0x00,
   0x00, 0x00, 0x00, 0x00, 0xf8, 0x3f, 0xbf, 0x3f, 0x00, 0x00, 0xc0, 0xff,
   0x03, 0x00, 0x00, 0x00, 0x00, 0x00, 0xfc, 0x1f, 0xbf, 0x0f, 0x00, 0x00,
   0x00, 0xfe, 0x01, 0x00, 0x00, 0x00, 0x00, 0x04, 0xfc, 0x9f, 0xdc, 0x07,
   0x00, 0x00, 0x00, 0x00, 0x00, 0x00, 0x00, 0x00, 0x00, 0x06, 0xf6, 0xdf,
   0xe3, 0x03, 0x00, 0x00, 0x00, 0x00, 0x00, 0x00, 0x00, 0x00, 0x00, 0x07,
   0xfe, 0xff, 0xee, 0x00, 0x00, 0x00, 0x00, 0x00, 0x00, 0x00, 0x00, 0x00,
   0xc0, 0x07, 0xfe, 0xff, 0x2f, 0x00, 0x00, 0x00, 0x00, 0x00, 0x00, 0x00,
   0x00, 0x00, 0xe0, 0x1f, 0xff, 0xff, 0x67, 0x00, 0x00, 0x00, 0x00, 0x00,
   0x00, 0x00, 0x00, 0x00, 0xe0, 0x1f, 0xff, 0x80, 0xf7, 0x00, 0x00, 0x00,
   0x00, 0x00, 0x00, 0x00, 0x00, 0x00, 0xf0, 0x3d, 0xf7, 0x01, 0xf0, 0x00,
   0x00, 0x00, 0x00, 0x00, 0x00, 0x00, 0x00, 0x00, 0xee, 0x38, 0xfd, 0x00,
   0xe8, 0x00, 0x00, 0x00, 0x00, 0x00, 0x00, 0x00, 0x00, 0x00, 0x6f, 0x38,
   0xfe, 0x00, 0xf8, 0x00, 0x00, 0x00, 0x00, 0x00, 0x00, 0x00, 0x00, 0x80,
   0x46, 0x30, 0x7e, 0x00, 0xf8, 0x00, 0x00, 0x00, 0x00, 0x00, 0x00, 0x00,
   0x00, 0xc0, 0x05, 0x30, 0x2e, 0x00, 0xe2, 0x10, 0x00, 0x00, 0x00, 0x00,
   0x00, 0x00, 0x00, 0xc0, 0xc9, 0x00, 0x0c, 0x00, 0xc3, 0x18, 0x00, 0x00,
   0x00, 0x00, 0x00, 0x00, 0x00, 0xe0, 0xe5, 0x00, 0x00, 0x00, 0x80, 0x04,
   0x00, 0x00, 0x00, 0x00, 0x00, 0x00, 0x00, 0xf0, 0xe0, 0x00, 0x00, 0x00,
   0x18, 0xc0, 0x04, 0x00, 0x00, 0x00, 0x00, 0x00, 0x00, 0xf0, 0xe1, 0x00,
   0x00, 0x00, 0xac, 0x60, 0x04, 0x00, 0x00, 0x00, 0x00, 0x00, 0x00, 0xf8,
   0x61, 0x00, 0x00, 0x00, 0xc6, 0x20, 0x02, 0x00, 0x00, 0x00, 0x00, 0x00,
   0x00, 0x78, 0x10, 0x00, 0x00, 0x00, 0x40, 0x00, 0x00, 0x00, 0x00, 0x00,
   0x00, 0x00, 0x00, 0x18, 0x00, 0x00, 0x00, 0x00, 0x00, 0x00, 0x00, 0x00,
   0x00, 0x00, 0x00, 0x00, 0x00, 0x00, 0x00, 0x00, 0x00, 0x00, 0x00, 0xe0,
   0x00, 0x00, 0x00, 0x00, 0x00, 0x00, 0x00, 0x00, 0x00, 0x00, 0x00, 0x00,
   0x00, 0xd8, 0x03, 0x00, 0x00, 0x00, 0x00, 0x00, 0x00, 0x00, 0x00, 0x00,
   0x00, 0x00, 0x00, 0xf8, 0x07, 0x00, 0x00, 0x00, 0x00, 0x00, 0x00, 0x00,
   0x00, 0x00, 0x00, 0x00, 0x00, 0xfc, 0x07, 0x00, 0x00, 0x00, 0x00, 0x00,
   0x00, 0x00, 0x00, 0x00, 0x00, 0x00, 0x00, 0x00, 0x00, 0x00, 0x00, 0x00,
   0x00, 0x00, 0x00, 0x00, 0x00, 0x00, 0x00, 0x00, 0x00, 0x00, 0x00, 0x00,
   0x00, 0x00, 0x00, 0x00, 0x00, 0x00, 0x00, 0x00, 0x00, 0x00, 0x00, 0x00,
   0x00, 0x00, 0x00, 0x00, 0x00, 0x00, 0x00, 0x00, 0x00, 0x00, 0x00, 0x00,
   0x00, 0x00, 0x00, 0x00, 0x00, 0x00, 0x00, 0x00 };
