#define 7_width 110
#define 7_height 64
static unsigned char 7_bits[] = {
   0x00, 0x00, 0x00, 0x00, 0x00, 0x00, 0x00, 0x00, 0x00, 0x00, 0x00, 0x00,
   0x00, 0x00, 0x00, 0x00, 0x00, 0x00, 0x00, 0x00, 0x00, 0x00, 0x00, 0x00,
   0x00, 0x00, 0x00, 0x00, 0x00, 0x00, 0x00, 0x00, 0x00, 0x00, 0x00, 0x00,
   0x00, 0xf8, 0x00, 0x00, 0x00, 0x00, 0x00, 0x00, 0x00, 0x00, 0x00, 0x00,
   0x00, 0x00, 0x00, 0xff, 0x00, 0x00, 0x00, 0x00, 0x00, 0x00, 0x00, 0x00,
   0x00, 0x00, 0x00, 0x00, 0xc0, 0xff, 0x1f, 0x00, 0x00, 0x00, 0x00, 0x00,
   0x00, 0x00, 0x00, 0x00, 0x00, 0x00, 0xf8, 0xff, 0x7f, 0x00, 0x00, 0x00,
   0x00, 0x00, 0x00, 0x00, 0x00, 0x00, 0x00, 0x00, 0xfe, 0xff, 0xff, 0x00,
   0x00, 0x00, 0x00, 0x00, 0x00, 0x00, 0x00, 0x00, 0x00, 0x80, 0xff, 0x3d,
   0xf0, 0x03, 0x00, 0x00, 0x00, 0x00, 0x00, 0x00, 0x00, 0x00, 0x00, 0xc0,
   0xff, 0x7d, 0xc0, 0x03, 0x00, 0x00, 0x00, 0x00, 0x00, 0x00, 0x00, 0x00,
   0x00, 0xe0, 0xff, 0x3f, 0x80, 0x07, 0x00, 0x00, 0x00, 0x00, 0x00, 0x00,
   0x00, 0x00, 0x00, 0xf0, 0xff, 0x1f, 0x00, 0x0f, 0x00, 0x00, 0x00, 0x00,
   0x00, 0x00, 0x00, 0x00, 0x00, 0xf0, 0xff, 0x1f, 0x04, 0x0e, 0x00, 0x00,
   0x00, 0x00, 0x00, 0x00, 0x00, 0x00, 0x00, 0xb0, 0xff, 0x0f, 0x1e, 0x0e,
   0x00, 0x00, 0x00, 0x00, 0x00, 0x00, 0x00, 0x00, 0x00, 0xf8, 0xff, 0x0f,
   0x3e, 0x0c, 0x00, 0x00, 0x00, 0x00, 0x00, 0x00, 0x00, 0x00, 0x00, 0xf8,
   0xf7, 0x0f, 0x7e, 0x1c, 0x00, 0x00, 0x00, 0x00, 0x00, 0x00, 0x00, 0x00,
   0x00, 0xf8, 0x7f, 0x0e, 0xfe, 0x58, 0x00, 0x00, 0x00, 0x00, 0x00, 0x00,
   0x00, 0x00, 0x00, 0x78, 0x3e, 0x1c, 0xfe, 0x49, 0x00, 0x00, 0x00, 0x00,
   0x00, 0x00, 0x00, 0x00, 0x00, 0xf8, 0xfe, 0x1e, 0xfc, 0xe9, 0x00, 0x00,
   0x00, 0x00, 0x00, 0x00, 0x00, 0x00, 0x00, 0xf8, 0xff, 0x3f, 0xf8, 0xec,
   0x01, 0x00, 0x00, 0x00, 0x00, 0x00, 0x00, 0x00, 0x00, 0xf0, 0xff, 0x77,
   0x00, 0xfe, 0x03, 0x00, 0x00, 0x00, 0x00, 0x00, 0x00, 0x00, 0x00, 0xf0,
   0xff, 0xef, 0x80, 0xff, 0x07, 0x00, 0x00, 0x00, 0x00, 0x00, 0x00, 0x00,
   0x00, 0xf8, 0xff, 0x9f, 0xff, 0xff, 0x1f, 0x00, 0x00, 0x00, 0x00, 0x00,
   0x00, 0x00, 0x00, 0xf8, 0xff, 0x3f, 0xff, 0xfe, 0x3f, 0x00, 0x00, 0xe0,
   0x1f, 0x00, 0x00, 0x00, 0x00, 0xf8, 0xff, 0x7f, 0xfe, 0xfc, 0x3f, 0x00,
   0x00, 0x80, 0xff, 0x07, 0x00, 0x00, 0x00, 0xf8, 0xff, 0xff, 0xfc, 0xff,
   0x7f, 0x00, 0x00, 0x00, 0xfe, 0x7f, 0x00, 0x00, 0x00, 0xdc, 0xff, 0xff,
   0xf9, 0xff, 0x6f, 0x00, 0x00, 0x00, 0xfc, 0xff, 0xcf, 0xff, 0x01, 0xde,
   0xff, 0xff, 0xc3, 0xbf, 0xff, 0x00, 0x00, 0x00, 0xf0, 0xff, 0xff, 0x7f,
   0x1f, 0xdf, 0xff, 0xff, 0x27, 0xb2, 0xff, 0x00, 0x00, 0x00, 0xe0, 0xef,
   0xfd, 0xff, 0xbf, 0x8f, 0xff, 0xff, 0x2f, 0xf8, 0x9f, 0x00, 0x00, 0x00,
   0x80, 0xff, 0xfd, 0xff, 0x9f, 0x3f, 0xff, 0xff, 0x1f, 0xe0, 0x9f, 0x00,
   0x00, 0x00, 0x00, 0xff, 0xff, 0xbb, 0xdf, 0x7f, 0xfe, 0xff, 0x3f, 0xc2,
   0x9f, 0x00, 0x00, 0x00, 0x00, 0xfe, 0xff, 0xff, 0xdf, 0xff, 0xc1, 0xff,
   0xff, 0x1c, 0x7f, 0x00, 0x00, 0x00, 0x00, 0xfc, 0xff, 0xf3, 0xdf, 0xff,
   0x03, 0xfe, 0xff, 0x1d, 0x7e, 0x00, 0x00, 0x00, 0x00, 0xf8, 0xbf, 0xef,
   0xe7, 0xff, 0x01, 0xf0, 0xff, 0x73, 0x3c, 0x00, 0x00, 0x00, 0x00, 0xe0,
   0xfb, 0x1f, 0xdf, 0xff, 0x01, 0xc0, 0xff, 0x0f, 0x31, 0x00, 0x00, 0x00,
   0x00, 0xc0, 0xfb, 0x1e, 0xdd, 0xff, 0x00, 0x00, 0xff, 0xbf, 0x07, 0x00,
   0x00, 0x00, 0x00, 0x80, 0xe1, 0x7f, 0xd7, 0x3f, 0x00, 0x00, 0xfc, 0xff,
   0x00, 0x00, 0x00, 0x00, 0x00, 0x00, 0xf1, 0xff, 0xde, 0x0f, 0x00, 0x00,
   0xf0, 0xff, 0x03, 0x00, 0x00, 0x00, 0x00, 0x00, 0xe0, 0xff, 0xed, 0x03,
   0x00, 0x00, 0xc0, 0xff, 0x01, 0x00, 0x00, 0x00, 0x00, 0x00, 0x40, 0xff,
   0xf5, 0x03, 0x00, 0x00, 0x00, 0xff, 0x00, 0x00, 0x00, 0x00, 0x00, 0x00,
   0xc0, 0xef, 0x71, 0x00, 0x00, 0x00, 0x00, 0x10, 0x00, 0x00, 0x00, 0x00,
   0x00, 0x00, 0x00, 0xff, 0x0c, 0x00, 0x00, 0x00, 0x00, 0x00, 0x00, 0x00,
   0x00, 0x00, 0x00, 0x00, 0x00, 0xee, 0x61, 0x00, 0x00, 0x00, 0x00, 0x00,
   0x00, 0x00, 0x00, 0x00, 0x00, 0x00, 0x00, 0xf8, 0x71, 0x00, 0x00, 0x00,
   0x00, 0x00, 0x00, 0x00, 0x00, 0x00, 0x00, 0x00, 0x00, 0x00, 0xf0, 0x00,
   0x00, 0x00, 0x00, 0x00, 0x00, 0x00, 0x00, 0x00, 0x00, 0x00, 0x00, 0x00,
   0xe2, 0x00, 0x00, 0x00, 0x00, 0x00, 0x00, 0x00, 0x00, 0x00, 0x00, 0x00,
   0x00, 0x10, 0xfb, 0x00, 0x00, 0x00, 0x00, 0x00, 0x00, 0x00, 0x00, 0x00,
   0x00, 0x00, 0x00, 0xf0, 0xfb, 0x0c, 0x00, 0x00, 0x00, 0x00, 0x00, 0x00,
   0x00, 0x00, 0x40, 0x00, 0x00, 0xf0, 0x43, 0x3f, 0x00, 0x00, 0x00, 0x00,
   0x00, 0x00, 0x00, 0x00, 0x80, 0x01, 0x00, 0xc0, 0x03, 0x0f, 0x00, 0x00,
   0x00, 0x00, 0x00, 0x00, 0x00, 0x00, 0xc0, 0x01, 0x00, 0xc0, 0x83, 0x0f,
   0x00, 0x00, 0x00, 0x00, 0x00, 0x00, 0x00, 0x00, 0xc0, 0x01, 0x00, 0x00,
   0x02, 0x40, 0x04, 0x00, 0x00, 0x00, 0x00, 0x00, 0x00, 0x00, 0x00, 0x01,
   0x00, 0x80, 0xfd, 0x61, 0x06, 0x00, 0x00, 0x00, 0x00, 0x00, 0x00, 0x00,
   0x00, 0x01, 0x00, 0xc0, 0xff, 0x1c, 0x02, 0x00, 0x00, 0x00, 0x00, 0x00,
   0x00, 0x00, 0x60, 0x03, 0x00, 0x80, 0x7f, 0xc0, 0x01, 0x00, 0x00, 0x00,
   0x00, 0x00, 0x00, 0x00, 0x60, 0x06, 0x00, 0x00, 0x7c, 0xb7, 0x07, 0x00,
   0x00, 0x00, 0x00, 0x00, 0x00, 0x00, 0xf0, 0x0f, 0x00, 0x00, 0x00, 0xf7,
   0x0f, 0x00, 0x00, 0x00, 0x00, 0x00, 0x00, 0x00, 0xe0, 0x1f, 0x00, 0x00,
   0x00, 0xfa, 0x1f, 0x00, 0x00, 0x00, 0x00, 0x00, 0x00, 0x00, 0x00, 0x1c,
   0x00, 0x00, 0x00, 0xf8, 0x0d, 0x00, 0x00, 0x00, 0x00, 0x00, 0x00, 0x00,
   0x00, 0x00, 0x00, 0x00, 0x00, 0x00, 0x00, 0x00, 0x00, 0x00, 0x00, 0x00,
   0x00, 0x00, 0x00, 0x00, 0x00, 0x00, 0x00, 0x00, 0x00, 0x00, 0x00, 0x00,
   0x00, 0x00, 0x00, 0x00, 0x00, 0x00, 0x00, 0x00, 0x00, 0x00, 0x00, 0x00,
   0x00, 0x00, 0x00, 0x00, 0x00, 0x00, 0x00, 0x00, 0x00, 0x00, 0x00, 0x00,
   0x00, 0x00, 0x00, 0x00, 0x00, 0x00, 0x00, 0x00, 0x00, 0x00, 0x00, 0x00,
   0x00, 0x00, 0x00, 0x00, 0x00, 0x00, 0x00, 0x00 };
