#define 8_width 110
#define 8_height 64
static unsigned char 8_bits[] = {
   0x00, 0x00, 0x00, 0x00, 0x00, 0x00, 0x00, 0x00, 0x00, 0x00, 0x00, 0x00,
   0x00, 0x00, 0x00, 0x00, 0x00, 0x00, 0x00, 0x00, 0x00, 0x00, 0x00, 0x7e,
   0x00, 0x00, 0x00, 0x00, 0x00, 0x00, 0x00, 0x00, 0x00, 0x00, 0x00, 0x00,
   0xc0, 0x1f, 0x00, 0x00, 0x00, 0x00, 0x00, 0x00, 0x00, 0x00, 0x00, 0x00,
   0x00, 0x00, 0xf0, 0xff, 0x0f, 0x00, 0x00, 0x00, 0x00, 0x00, 0x00, 0x00,
   0x00, 0x00, 0x00, 0x00, 0xfc, 0xff, 0x3f, 0x00, 0x00, 0x00, 0x00, 0x00,
   0x00, 0x00, 0x00, 0x00, 0x00, 0x00, 0xff, 0xef, 0x7f, 0x00, 0x00, 0x00,
   0x00, 0x00, 0x00, 0x00, 0x00, 0x00, 0x00, 0xc0, 0x7f, 0x0f, 0xf8, 0x00,
   0x00, 0x00, 0x00, 0x00, 0x00, 0x00, 0x00, 0x00, 0x00, 0xe0, 0x7f, 0x1f,
   0xf0, 0x01, 0x00, 0x00, 0x00, 0x00, 0x00, 0x00, 0x00, 0x00, 0x00, 0xf0,
   0xff, 0x0f, 0xc0, 0x01, 0x00, 0x00, 0x00, 0x00, 0x00, 0x00, 0x00, 0x00,
   0x00, 0xf8, 0xfb, 0x07, 0x80, 0x03, 0x00, 0x00, 0x00, 0x00, 0x00, 0x00,
   0x00, 0x00, 0x00, 0xfc, 0xff, 0x07, 0x83, 0x03, 0x00, 0x00, 0x00, 0x00,
   0x00, 0x00, 0x00, 0x00, 0x00, 0xec, 0xff, 0x87, 0x07, 0x07, 0x00, 0x00,
   0x00, 0x00, 0x00, 0x00, 0x00, 0x00, 0x00, 0xec, 0xff, 0x87, 0x1f, 0x07,
   0x00, 0x00, 0x00, 0x00, 0x00, 0x00, 0x00, 0x00, 0x00, 0xfc, 0xff, 0x87,
   0x3f, 0x16, 0x00, 0x00, 0x00, 0x00, 0x00, 0x00, 0x00, 0x00, 0x00, 0xfc,
   0x9d, 0x87, 0x3f, 0x36, 0x00, 0x00, 0x00, 0x00, 0x00, 0x00, 0x00, 0x00,
   0x00, 0xbc, 0x1f, 0x07, 0xff, 0x36, 0x00, 0x00, 0x00, 0x00, 0x00, 0x00,
   0x00, 0x00, 0x00, 0xbc, 0x3f, 0x07, 0x7f, 0x76, 0x00, 0x00, 0x00, 0x00,
   0x00, 0x00, 0x00, 0x00, 0x00, 0xbc, 0xff, 0x0f, 0x3c, 0xff, 0x01, 0x00,
   0x00, 0x00, 0x00, 0x00, 0x00, 0x00, 0x00, 0xfc, 0xff, 0x1b, 0xc0, 0xff,
   0x03, 0x00, 0x00, 0x00, 0x00, 0x00, 0x00, 0x00, 0x00, 0xfc, 0xff, 0x77,
   0xf0, 0xff, 0x07, 0x00, 0x00, 0x00, 0x00, 0x00, 0x00, 0x00, 0x00, 0xfc,
   0xff, 0xef, 0xff, 0xff, 0x0f, 0x00, 0x00, 0x00, 0x00, 0x00, 0x00, 0x00,
   0x00, 0xfc, 0xff, 0xdf, 0x3f, 0xff, 0x1f, 0x00, 0x00, 0x00, 0x00, 0x00,
   0x00, 0x00, 0x00, 0xfc, 0xff, 0xbf, 0x7f, 0xff, 0x3f, 0x00, 0x00, 0x00,
   0x00, 0x00, 0x00, 0x00, 0x00, 0xfe, 0xff, 0x7f, 0xfe, 0xff, 0x37, 0x00,
   0x00, 0x00, 0x00, 0x00, 0x00, 0x00, 0x00, 0xfe, 0xff, 0xff, 0xf8, 0xdf,
   0x3f, 0x00, 0x00, 0xf8, 0xff, 0x01, 0x00, 0x00, 0x00, 0xff, 0xff, 0xff,
   0xc1, 0xcd, 0x7f, 0x00, 0x00, 0xc0, 0xff, 0xff, 0xc0, 0xff, 0x00, 0xef,
   0xff, 0xff, 0x1b, 0xfc, 0x4f, 0x00, 0x00, 0x00, 0xff, 0xff, 0xff, 0xbf,
   0x8f, 0xef, 0xff, 0xff, 0x07, 0xf8, 0x4f, 0x00, 0x00, 0x00, 0xfc, 0xff,
   0xff, 0xff, 0xdf, 0xcf, 0xff, 0xff, 0x0f, 0xe0, 0x4f, 0x00, 0x00, 0x00,
   0xf0, 0xf7, 0xfe, 0xff, 0xef, 0x9f, 0xff, 0xff, 0x3f, 0xcf, 0x3f, 0x00,
   0x00, 0x00, 0xe0, 0xff, 0xff, 0xcf, 0xef, 0x7f, 0xf0, 0xff, 0x7f, 0x0e,
   0x3f, 0x00, 0x00, 0x00, 0x80, 0xff, 0xff, 0xff, 0xef, 0xff, 0x01, 0xff,
   0xff, 0x3d, 0x1e, 0x00, 0x00, 0x00, 0x00, 0xff, 0xff, 0xff, 0xff, 0xff,
   0x01, 0xf8, 0xff, 0x13, 0x1c, 0x00, 0x00, 0x00, 0x00, 0xfe, 0xfe, 0x7f,
   0xf7, 0xff, 0x00, 0xe0, 0xff, 0xcf, 0x00, 0x00, 0x00, 0x00, 0x00, 0xf8,
   0xbd, 0x8b, 0xef, 0x7f, 0x00, 0x00, 0xff, 0x3f, 0x00, 0x00, 0x00, 0x00,
   0x00, 0xf0, 0xfd, 0x87, 0xef, 0x3f, 0x00, 0x00, 0xfc, 0xff, 0x01, 0x00,
   0x00, 0x00, 0x00, 0xe0, 0x78, 0xcf, 0xeb, 0x1f, 0x00, 0x00, 0xf8, 0xff,
   0x01, 0x00, 0x00, 0x00, 0x00, 0x00, 0xf8, 0xcf, 0xef, 0x03, 0x00, 0x00,
   0xc0, 0xff, 0x00, 0x00, 0x00, 0x00, 0x00, 0x00, 0xf8, 0xdf, 0xf7, 0x01,
   0x00, 0x00, 0x00, 0x3f, 0x00, 0x00, 0x00, 0x00, 0x00, 0x00, 0xf8, 0x3f,
   0xfa, 0x00, 0x00, 0x00, 0x00, 0x00, 0x00, 0x00, 0x00, 0x00, 0x00, 0x00,
   0xf0, 0xbf, 0x3d, 0x00, 0x00, 0x00, 0x00, 0x00, 0x00, 0x00, 0x00, 0x00,
   0x00, 0x00, 0xf0, 0x3f, 0x07, 0x00, 0x00, 0x00, 0x00, 0x00, 0x00, 0x00,
   0x00, 0x00, 0x00, 0x00, 0xe0, 0x7b, 0x19, 0x00, 0x00, 0x00, 0x00, 0x00,
   0x00, 0x00, 0x00, 0x00, 0x00, 0x00, 0xc0, 0x7f, 0x3d, 0x00, 0x00, 0x00,
   0x00, 0x00, 0x00, 0x00, 0x00, 0x00, 0x00, 0x00, 0x80, 0x5d, 0x3c, 0x00,
   0x00, 0x00, 0x00, 0x00, 0x00, 0x00, 0x00, 0x00, 0x00, 0x00, 0x00, 0x3e,
   0x3a, 0x00, 0x00, 0x00, 0x00, 0x00, 0x00, 0x00, 0x00, 0x00, 0x00, 0x10,
   0x00, 0x30, 0x3e, 0x00, 0x00, 0x00, 0x00, 0x00, 0x00, 0x00, 0x00, 0x00,
   0x00, 0x28, 0x00, 0x00, 0x3e, 0x00, 0x00, 0x00, 0x00, 0x00, 0x00, 0x00,
   0x00, 0x00, 0x00, 0x38, 0xc0, 0x81, 0x38, 0x00, 0x00, 0x00, 0x00, 0x00,
   0x00, 0x00, 0x00, 0x00, 0x00, 0x38, 0xc0, 0xcb, 0x30, 0x03, 0x00, 0x00,
   0x00, 0x00, 0x00, 0x00, 0x00, 0x00, 0x00, 0x18, 0xc0, 0x47, 0xa0, 0x01,
   0x00, 0x00, 0x00, 0x00, 0x00, 0x00, 0x00, 0x00, 0x20, 0x08, 0xc0, 0x83,
   0x03, 0x08, 0x00, 0x00, 0x00, 0x00, 0x00, 0x00, 0x00, 0x00, 0x70, 0x00,
   0xc0, 0xc3, 0x27, 0x8c, 0x00, 0x00, 0x00, 0x00, 0x00, 0x00, 0x00, 0x00,
   0x70, 0x00, 0xb0, 0xa1, 0x29, 0xc4, 0x00, 0x00, 0x00, 0x00, 0x00, 0x00,
   0x00, 0x00, 0x78, 0x00, 0xf0, 0x97, 0x00, 0x00, 0x00, 0x00, 0x00, 0x00,
   0x00, 0x00, 0x00, 0x00, 0xb8, 0x00, 0xf0, 0x3f, 0x00, 0x00, 0x00, 0x00,
   0x00, 0x00, 0x00, 0x00, 0x00, 0x00, 0xf8, 0x00, 0xc0, 0xdf, 0x01, 0x00,
   0x00, 0x00, 0x00, 0x00, 0x00, 0x00, 0x00, 0x00, 0x78, 0x00, 0x00, 0x0f,
   0x1a, 0x00, 0x00, 0x00, 0x00, 0x00, 0x00, 0x00, 0x00, 0x00, 0x3c, 0x00,
   0x00, 0xf4, 0x7a, 0x00, 0x00, 0x00, 0x00, 0x00, 0x00, 0x00, 0x00, 0x00,
   0x1c, 0x00, 0x00, 0x70, 0xff, 0x00, 0x00, 0x00, 0x00, 0x00, 0x00, 0x00,
   0x00, 0x00, 0x00, 0x00, 0x00, 0x60, 0xff, 0x01, 0x00, 0x00, 0x00, 0x00,
   0x00, 0x00, 0x00, 0x00, 0x00, 0x00, 0x00, 0x00, 0xdf, 0x01, 0x00, 0x00,
   0x00, 0x00, 0x00, 0x00, 0x00, 0x00, 0x00, 0x00, 0x00, 0x00, 0x00, 0x00,
   0x00, 0x00, 0x00, 0x00, 0x00, 0x00, 0x00, 0x00, 0x00, 0x00, 0x00, 0x00,
   0x00, 0x00, 0x00, 0x00, 0x00, 0x00, 0x00, 0x00 };
